<?xml version="1.0" encoding="iso-8859-1"?>
<!-- Generator: Adobe Illustrator 19.0.0, SVG Export Plug-In . SVG Version: 6.00 Build 0)  -->
<svg version="1.1" id="Layer_1" xmlns="http://www.w3.org/2000/svg" xmlns:xlink="http://www.w3.org/1999/xlink" x="0px" y="0px"
	 viewBox="0 0 512 512" style="enable-background:new 0 0 512 512;" xml:space="preserve">
<circle style="fill:#F2CF61;" cx="256" cy="256" r="256"/>
<rect x="200" y="400" style="fill:#242424;" width="108" height="16"/>
<rect x="292" y="400" style="fill:#1A1A1A;" width="16" height="16"/>
<path style="fill:#242424;" d="M404,332c0,41.968-65.156,76-148,76s-148-34.032-148-76H404z"/>
<path style="fill:#1A1A1A;" d="M388,332c0,40.608-61,73.78-140,75.892c2.648,0.08,5.312,0.108,8,0.108c82.844,0,148-34.032,148-76
	H388z"/>
<path style="fill:#66401E;" d="M114.784,338c18.86,8.108,74.944,14,141.216,14s122.356-5.892,141.216-14
	c-18.86-8.108-74.944-14-141.216-14S133.644,329.892,114.784,338z"/>
<path style="fill:#59381A;" d="M138.784,338c17.712-7.616,68.252-13.272,129.216-13.928c-3.96-0.048-7.96-0.072-12-0.072
	c-66.264,0-122.356,5.892-141.216,14c18.86,8.108,74.944,14,141.216,14c4.04,0,8.04-0.024,12-0.072
	C207.036,351.272,156.496,345.616,138.784,338z"/>
<path style="fill:#CCCCCC;" d="M256,312c-81.736,0-148,8.952-148,20c0,2.608,3.732,5.092,10.444,7.384
	c-1.328-0.452-2.58-0.916-3.66-1.384c18.86-8.108,74.944-14,141.216-14s122.356,5.892,141.216,14
	c-1.084,0.468-2.332,0.92-3.66,1.384C400.276,337.092,404,334.608,404,332C404,320.952,337.736,312,256,312z"/>
<g>
	<path style="fill:#BFBFBF;" d="M116.072,338.512c0.752,0.292,1.544,0.584,2.384,0.872
		C117.604,339.092,116.812,338.804,116.072,338.512z"/>
	<path style="fill:#BFBFBF;" d="M116.068,338.512L116.068,338.512L116.068,338.512z"/>
	<path style="fill:#BFBFBF;" d="M124,332c0-10.684,61.984-19.408,140-19.968c-2.648-0.02-5.316-0.032-8-0.032
		c-81.736,0-148,8.952-148,20c0,2.084,2.424,4.092,6.824,5.984c2.724-1.168,6.3-2.284,10.492-3.348
		C124.468,333.772,124,332.9,124,332z"/>
	<path style="fill:#BFBFBF;" d="M114.784,338c0.404,0.172,0.844,0.344,1.272,0.512c-0.432-0.172-0.832-0.352-1.244-0.528
		C114.812,337.992,114.796,337.996,114.784,338z"/>
	<path style="fill:#BFBFBF;" d="M397.216,338c-0.012-0.004-0.028-0.008-0.04-0.016c-0.412,0.176-0.8,0.356-1.244,0.528
		C396.372,338.344,396.812,338.172,397.216,338z"/>
	<path style="fill:#BFBFBF;" d="M395.928,338.512c-0.752,0.292-1.544,0.584-2.384,0.872
		C394.396,339.092,395.176,338.804,395.928,338.512z"/>
	<path style="fill:#BFBFBF;" d="M395.932,338.512L395.932,338.512L395.932,338.512z"/>
</g>
<path style="fill:#242424;" d="M368.508,26.024l-86.74,218.288c-0.98,2.484,0.112,5.352,2.58,6.5c2.548,1.2,5.588,0.1,6.788-2.448
	L390,37.868C383.052,33.584,375.88,29.636,368.508,26.024z"/>
<path style="fill:#333333;" d="M368.508,26.024l-83.232,209.464l90.32-205.832C373.252,28.416,370.896,27.196,368.508,26.024z"/>
<ellipse style="fill:#F5F5F5;" cx="256" cy="224" rx="92" ry="40"/>
<path style="fill:#E6E6E6;" d="M256,184c-2.7,0-5.36,0.064-8,0.16c47.064,1.76,84,18.92,84,39.84s-36.936,38.08-84,39.84
	c2.64,0.096,5.3,0.16,8,0.16c50.812,0,92-17.908,92-40S306.812,184,256,184z"/>
<path style="fill:#CC584C;" d="M188,248c0-22.092,41.188-40,92-40c26.784,0,50.892,4.98,67.704,12.92
	C344.084,200.264,304.428,184,256,184c-50.812,0-92,17.908-92,40c0,10.444,9.22,19.952,24.296,27.08
	C188.12,250.064,188,249.036,188,248z"/>
<path style="fill:#BF5347;" d="M329.14,214.244c6.828,1.892,13.108,4.104,18.564,6.68C344.084,200.264,304.428,184,256,184
	c-2.752,0-5.452,0.064-8.136,0.164C287.4,185.616,319.732,197.936,329.14,214.244z"/>
<g>
	<path style="fill:#242424;" d="M272,260c0,4.4-3.6,8-8,8h-16c-4.4,0-8-3.6-8-8v-72c0-4.4,3.6-8,8-8h16c4.4,0,8,3.6,8,8V260z"/>
	<path style="fill:#242424;" d="M336.384,12.944L219.696,209.256c-1.36,2.304-0.724,5.304,1.52,6.828
		c2.328,1.584,5.504,0.984,7.088-1.352L359.468,21.84C351.956,18.524,344.252,15.556,336.384,12.944z"/>
</g>
<path style="fill:#333333;" d="M336.384,12.944L219.696,209.256c-1.084,1.828-0.856,4.076,0.4,5.696
	c0.064-0.084,0.16-0.124,0.22-0.22L345.132,15.968C342.244,14.9,339.316,13.916,336.384,12.944z"/>
<path style="fill:#1A1A1A;" d="M56.228,416c46.916,58.504,118.948,96,199.772,96s152.856-37.496,199.772-96H56.228z"/>
<path style="fill:#333333;" d="M448.992,424c2.296-2.636,4.592-5.264,6.78-8H56.22c2.188,2.736,4.484,5.364,6.78,8H448.992z"/>
<g>
</g>
<g>
</g>
<g>
</g>
<g>
</g>
<g>
</g>
<g>
</g>
<g>
</g>
<g>
</g>
<g>
</g>
<g>
</g>
<g>
</g>
<g>
</g>
<g>
</g>
<g>
</g>
<g>
</g>
</svg>
